<svg xmlns="http://www.w3.org/2000/svg" width="19" height="23">
    <path fill-rule="evenodd" fill="#E91F27" d="M9.632.568C4.582.568.488 4.583.488 9.535a8.79 8.79 0 0 0 1.147 4.343l7.029 8.428c.44 1.224 1.54 1.224 1.979 0l6.986-8.428a8.79 8.79 0 0 0 1.147-4.343c0-4.952-4.095-8.967-9.144-8.967zM9.516 13.59c-2.38 0-4.309-2.423-4.309-4.757 0-2.334 1.929-4.226 4.309-4.226s4.308 1.892 4.308 4.226-1.928 4.757-4.308 4.757z"/>
    <path fill-rule="evenodd" fill="#E91F27" d="m14.445 4.167 1.109 1.665-12 8-1.109-1.665 12-8z"/>
</svg>
